<?xml version="1.0" encoding="UTF-8"?>
<svg xmlns="http://www.w3.org/2000/svg" viewBox="0 0 1058.04 199.15">
  <defs>
    <style>
      .cls-1 {
        fill: #d0ebe5;
      }

      .cls-2, .cls-3, .cls-4 {
        fill: none;
      }

      .cls-3 {
        stroke-linecap: round;
      }

      .cls-3, .cls-4 {
        stroke: #2f6e60;
        stroke-miterlimit: 10;
        stroke-width: 3px;
      }

      .cls-5 {
        fill: #2f6e60;
      }
    </style>
  </defs>
  <g id="Layer_1" data-name="Layer 1">
    <g>
      <rect class="cls-2" x="217.79" y="27.01" width="802.72" height="152.04"/>
      <path class="cls-5" d="M238.54,65.42l49.13,70.68h.23v-70.68h7.52v80.71h-9.69l-49.13-70.68h-.23v70.68h-7.52v-80.71h9.69Z"/>
      <path class="cls-5" d="M366.9,65.42v6.84h-41.84v28.73h39.22v6.84h-39.22v31.46h43.66v6.84h-51.19v-80.71h49.36Z"/>
      <path class="cls-5" d="M434.5,65.42v6.84h-41.84v28.73h39.22v6.84h-39.22v31.46h43.66v6.84h-51.19v-80.71h49.36Z"/>
      <path class="cls-5" d="M476.91,65.42c27.47,0,43.43,16.3,43.43,40.93,0,16.19-9.8,39.79-42.98,39.79h-25.65v-80.71h25.19ZM475.31,139.29c22.46,0,37.51-11.86,37.51-32.95,0-22.57-15.05-34.09-37.85-34.09h-15.73v67.03h16.07Z"/>
      <path class="cls-5" d="M547.7,65.42l29.41,67.71,29.41-67.71h10.72v80.71h-7.52v-71.13h-.23l-30.78,71.13h-3.31l-31.24-71.13h-.23v71.13h-7.52v-80.71h11.29Z"/>
      <path class="cls-5" d="M671.05,65.42l33.97,80.71h-8.44l-8.78-21.43h-42.75l-9.12,21.43h-7.87l35.23-80.71h7.75ZM648.02,117.86h37.05l-18.24-44.23-18.81,44.23Z"/>
      <path class="cls-5" d="M761.91,65.42v6.84h-27.59v73.87h-7.52v-73.87h-27.59v-6.84h62.7Z"/>
      <path class="cls-5" d="M838.62,76.02l-6.16,5.13c-4.56-6.84-12.54-10.94-21.66-10.94-20.52,0-34.2,15.05-34.2,35.57s13.34,35.57,34.2,35.57c9.23,0,19.04-4.9,23.83-12.54l6.16,4.67c-7.75,10.6-18.12,14.71-29.98,14.71-24.85,0-41.72-18.13-41.72-42.41s17.33-42.41,41.72-42.41c11.06,0,20.75,3.65,27.82,12.65Z"/>
      <path class="cls-5" d="M862.11,65.42v35.57h45.14v-35.57h7.52v80.71h-7.52v-38.3h-45.14v38.3h-7.52v-80.71h7.52Z"/>
      <path class="cls-5" d="M969.38,65.42l33.97,80.71h-8.44l-8.78-21.43h-42.75l-9.12,21.43h-7.87l35.23-80.71h7.75ZM946.35,117.86h37.05l-18.24-44.23-18.81,44.23Z"/>
    </g>
  </g>
  <g id="Layer_2" data-name="Layer 2">
    <g>
      <ellipse class="cls-1" cx="112.16" cy="101.63" rx="50.38" ry="9.16"/>
      <ellipse class="cls-4" cx="112.26" cy="94.65" rx="58.69" ry="16.14"/>
      <path class="cls-4" d="M170.79,94.66c.11,1.71.17,3.43.17,5.17,0,36.95-26.33,66.91-58.8,66.91s-58.8-29.96-58.8-66.91c0-1.45.04-2.88.12-4.31"/>
      <path class="cls-4" d="M166.05,102.43c-9.08-6.35-29.79-10.78-53.89-10.78s-43.14,4.09-52.74,10.03"/>
      <path class="cls-3" d="M79.83,102.62c7.28-3.21,13.03-3.44,17.1-2.95,7,.84,8.39,3.73,15.06,3.82,7.08.09,8.78-3.12,16.19-3.88,3.83-.39,9.41-.15,16.52,3.04"/>
      <path class="cls-3" d="M110.67,97.94c1.28-2.76,2.9-7.24,3.07-12.93.25-8.4-2.82-14.43-3.5-15.73-1.89-3.58-4.16-6.11-5.82-7.7-.25-2.39-.87-5.83-2.55-9.62-3.11-7.01-7.94-10.94-10.27-12.79-8.62-6.84-18.04-8.06-22.19-8.33"/>
      <path class="cls-3" d="M69.69,31.19c1.22.96,2.89,2.54,4.09,4.88.98,1.9,1.25,3.52,1.36,4.09,1.01,5.19,5.85,12.02,10.99,16.45,3.18,2.74,7.73,6.66,14.01,6.54,1.9-.04,3.46-.44,4.53-.79"/>
      <path class="cls-3" d="M102.94,61.29c-1.39-2.34-2.8-4.34-4.09-6.03-1.91-2.49-3.02-3.93-4.88-5.39-1.37-1.07-3.48-2.41-6.46-3.3"/>
      <path class="cls-3" d="M111.04,69.06c.72-2.23,1.44-4.45,2.15-6.68"/>
      <path class="cls-3" d="M113.75,61.29c-.47-1.47-1-3.66-1.02-6.34,0-1.4.11-4.38,1.44-7.77,1.69-4.33,4.37-6.87,6.9-9.25,1.81-1.71,4.38-4.09,8.51-5.93,3.69-1.64,7.01-2.11,9.16-2.26"/>
      <path class="cls-3" d="M138.73,30.83c-1.02,1.04-2.33,2.67-3.12,4.94-1.02,2.92-.27,4.35-.75,7.33-.55,3.35-2.15,5.55-4.63,8.94-2.25,3.07-4.13,5.65-7.65,7.43-3.21,1.63-6.28,1.84-8.08,1.81"/>
      <path class="cls-3" d="M115.03,59.26c.93-2.65,2.09-4.66,3.02-6.03,2.03-3,4.24-4.91,5.57-6.05.84-.72,1.58-1.27,2.11-1.66"/>
    </g>
  </g>
</svg>