<?xml version="1.0" encoding="UTF-8"?>
<svg id="Layer_1" data-name="Layer 1" xmlns="http://www.w3.org/2000/svg" viewBox="0 0 1058.04 199.15">
  <defs>
    <style>
      .cls-1 {
        fill: #76ada0;
      }

      .cls-2 {
        fill: #fff;
      }

      .cls-3, .cls-4, .cls-5 {
        fill: none;
      }

      .cls-4, .cls-5 {
        stroke: #fff;
        stroke-miterlimit: 10;
        stroke-width: 3px;
      }

      .cls-5 {
        stroke-linecap: round;
      }
    </style>
  </defs>
  <g>
    <rect class="cls-3" x="217.79" y="27.01" width="802.72" height="152.04"/>
    <path class="cls-2" d="M238.53,65.42l49.13,70.68h.23v-70.68h7.52v80.71h-9.69l-49.13-70.68h-.23v70.68h-7.52v-80.71h9.69Z"/>
    <path class="cls-2" d="M366.9,65.42v6.84h-41.84v28.73h39.22v6.84h-39.22v31.46h43.66v6.84h-51.19v-80.71h49.36Z"/>
    <path class="cls-2" d="M434.5,65.42v6.84h-41.84v28.73h39.22v6.84h-39.22v31.46h43.66v6.84h-51.19v-80.71h49.36Z"/>
    <path class="cls-2" d="M476.91,65.42c27.47,0,43.43,16.3,43.43,40.93,0,16.19-9.8,39.79-42.98,39.79h-25.65v-80.71h25.19ZM475.31,139.29c22.46,0,37.51-11.86,37.51-32.95,0-22.57-15.05-34.09-37.85-34.09h-15.73v67.03h16.07Z"/>
    <path class="cls-2" d="M547.7,65.42l29.41,67.71,29.41-67.71h10.72v80.71h-7.52v-71.13h-.23l-30.78,71.13h-3.31l-31.24-71.13h-.23v71.13h-7.52v-80.71h11.29Z"/>
    <path class="cls-2" d="M671.05,65.42l33.97,80.71h-8.44l-8.78-21.43h-42.75l-9.12,21.43h-7.87l35.23-80.71h7.75ZM648.02,117.86h37.05l-18.24-44.23-18.81,44.23Z"/>
    <path class="cls-2" d="M761.91,65.42v6.84h-27.59v73.87h-7.52v-73.87h-27.59v-6.84h62.7Z"/>
    <path class="cls-2" d="M838.62,76.02l-6.16,5.13c-4.56-6.84-12.54-10.94-21.66-10.94-20.52,0-34.2,15.05-34.2,35.57s13.34,35.57,34.2,35.57c9.23,0,19.04-4.9,23.83-12.54l6.16,4.67c-7.75,10.6-18.12,14.71-29.98,14.71-24.85,0-41.72-18.13-41.72-42.41s17.33-42.41,41.72-42.41c11.06,0,20.75,3.65,27.82,12.65Z"/>
    <path class="cls-2" d="M862.11,65.42v35.57h45.14v-35.57h7.52v80.71h-7.52v-38.3h-45.14v38.3h-7.52v-80.71h7.52Z"/>
    <path class="cls-2" d="M969.38,65.42l33.97,80.71h-8.44l-8.78-21.43h-42.75l-9.12,21.43h-7.87l35.23-80.71h7.75ZM946.35,117.86h37.05l-18.24-44.23-18.81,44.23Z"/>
  </g>
  <g>
    <ellipse class="cls-1" cx="112.16" cy="101.17" rx="50.13" ry="9.11"/>
    <ellipse class="cls-4" cx="112.27" cy="94.22" rx="58.39" ry="16.06"/>
    <path class="cls-4" d="M170.49,94.23c.11,1.7.17,3.41.17,5.14,0,36.76-26.19,66.57-58.5,66.57s-58.5-29.8-58.5-66.57c0-1.44.04-2.87.12-4.29"/>
    <path class="cls-4" d="M165.78,101.96c-9.04-6.32-29.64-10.73-53.61-10.73s-42.92,4.07-52.47,9.98"/>
    <path class="cls-5" d="M80,102.15c7.24-3.2,12.96-3.42,17.01-2.93,6.96.84,8.35,3.71,14.98,3.8,7.04.09,8.74-3.1,16.11-3.86,3.81-.39,9.36-.15,16.44,3.02"/>
    <path class="cls-5" d="M110.68,97.49c1.27-2.75,2.89-7.21,3.05-12.86.25-8.36-2.8-14.36-3.48-15.65-1.88-3.56-4.14-6.08-5.79-7.66-.25-2.38-.86-5.8-2.54-9.58-3.09-6.97-7.9-10.88-10.22-12.72-8.58-6.81-17.95-8.02-22.08-8.29"/>
    <path class="cls-5" d="M69.91,31.09c1.22.96,2.87,2.52,4.07,4.86.97,1.89,1.25,3.5,1.36,4.07,1.01,5.16,5.82,11.96,10.93,16.36,3.17,2.73,7.69,6.63,13.93,6.5,1.89-.04,3.44-.43,4.5-.79"/>
    <path class="cls-5" d="M103,61.03c-1.39-2.32-2.78-4.32-4.07-6-1.9-2.48-3-3.91-4.86-5.36-1.36-1.06-3.46-2.4-6.43-3.29"/>
    <path class="cls-5" d="M111.05,68.76c.71-2.22,1.43-4.43,2.14-6.65"/>
    <path class="cls-5" d="M113.75,61.03c-.47-1.47-1-3.64-1.01-6.31,0-1.39.11-4.36,1.43-7.73,1.68-4.31,4.35-6.83,6.86-9.2,1.8-1.7,4.36-4.07,8.47-5.9,3.67-1.63,6.98-2.1,9.11-2.25"/>
    <path class="cls-5" d="M138.6,30.73c-1.01,1.03-2.32,2.66-3.11,4.91-1.01,2.91-.27,4.32-.75,7.29-.55,3.34-2.14,5.52-4.61,8.9-2.24,3.06-4.11,5.62-7.61,7.4-3.2,1.62-6.25,1.83-8.04,1.8"/>
    <path class="cls-5" d="M115.02,59.01c.92-2.64,2.08-4.64,3-6,2.02-2.99,4.22-4.89,5.54-6.02.84-.71,1.57-1.27,2.1-1.65"/>
  </g>
</svg>